HIERARCHY
ROOT Hips
{
	OFFSET	0.00	0.00	0.00
	CHANNELS 6 Xposition Yposition Zposition Zrotation Xrotation Yrotation
	JOINT LeftUpLeg
	{
		OFFSET	 0.126116	-0.065224	 0.014019
		CHANNELS 3 Zrotation Xrotation Yrotation
		JOINT LeftLeg
		{
			OFFSET	 0.000000	 0.569914	 0.000000
			CHANNELS 3 Zrotation Xrotation Yrotation
			JOINT LeftFoot
			{
				OFFSET	 0.000000	 0.544423	 0.000000
				CHANNELS 3 Zrotation Xrotation Yrotation
				JOINT LeftToeBase
				{
					OFFSET	 0.000000	 0.207117	 0.000000
					CHANNELS 3 Zrotation Xrotation Yrotation
					End Site
					{
						OFFSET	 0.000000	 0.207117	 0.000000
					}
				}
			}
		}
	}
	JOINT RightUpLeg
	{
		OFFSET	-0.124023	-0.065224	 0.008373
		CHANNELS 3 Zrotation Xrotation Yrotation
		JOINT RightLeg
		{
			OFFSET	 0.000000	 0.570047	 0.000000
			CHANNELS 3 Zrotation Xrotation Yrotation
			JOINT RightFoot
			{
				OFFSET	 0.000000	 0.544354	 0.000000
				CHANNELS 3 Zrotation Xrotation Yrotation
				JOINT RightToeBase
				{
					OFFSET	 0.000000	 0.207540	 0.000000
					CHANNELS 3 Zrotation Xrotation Yrotation
					End Site
					{
						OFFSET	 0.000000	 0.207540	 0.000000
					}
				}
			}
		}
	}
	JOINT Spine
	{
		OFFSET	 0.000184	 0.117403	 0.007763
		CHANNELS 3 Zrotation Xrotation Yrotation
		JOINT Spine1
		{
			OFFSET	 0.000000	 0.137269	 0.000000
			CHANNELS 3 Zrotation Xrotation Yrotation
			JOINT Spine2
			{
				OFFSET	 0.000000	 0.156879	 0.000000
				CHANNELS 3 Zrotation Xrotation Yrotation
				JOINT LeftShoulder
				{
					OFFSET	 0.080501	 0.160143	 0.002496
					CHANNELS 3 Zrotation Xrotation Yrotation
					JOINT LeftArm
					{
						OFFSET	 0.000000	 0.164363	 0.000000
						CHANNELS 3 Zrotation Xrotation Yrotation
						JOINT LeftForeArm
						{
							OFFSET	 0.000000	 0.364576	 0.000000
							CHANNELS 3 Zrotation Xrotation Yrotation
							JOINT LeftHand
							{
								OFFSET	 0.000000	 0.360812	 0.000000
								CHANNELS 3 Zrotation Xrotation Yrotation
								JOINT LeftHandIndex1
								{
									OFFSET	 0.000000	 0.086006	 0.000000
									CHANNELS 3 Zrotation Xrotation Yrotation
									JOINT LeftHandIndex2
									{
										OFFSET	 0.000000	 0.047237	 0.000000
										CHANNELS 3 Zrotation Xrotation Yrotation
										JOINT LeftHandIndex3
										{
											OFFSET	-0.004284	 0.038165	 0.000551
											CHANNELS 3 Zrotation Xrotation Yrotation
											End Site
											{
												OFFSET	-0.004284	 0.038165	 0.000551
											}
										}
									}
								}
							}
						}
					}
				}
				JOINT Neck
				{
					OFFSET	 0.000000	 0.176489	 0.000000
					CHANNELS 3 Zrotation Xrotation Yrotation
					JOINT Head
					{
						OFFSET	 0.000000	 0.077941	 0.001747
						CHANNELS 3 Zrotation Xrotation Yrotation
						End Site
						{
							OFFSET	 0.000000	 0.077941	 0.001747
						}
					}
				}
				JOINT RightShoulder
				{
					OFFSET	-0.080363	 0.159706	-0.000306
					CHANNELS 3 Zrotation Xrotation Yrotation
					JOINT RightArm
					{
						OFFSET	 0.000000	 0.164196	 0.000000
						CHANNELS 3 Zrotation Xrotation Yrotation
						JOINT RightForeArm
						{
							OFFSET	 0.000000	 0.365611	 0.000000
							CHANNELS 3 Zrotation Xrotation Yrotation
							JOINT RightHand
							{
								OFFSET	 0.000000	 0.360648	 0.000000
								CHANNELS 3 Zrotation Xrotation Yrotation
								JOINT RightHandIndex1
								{
									OFFSET	 0.000000	 0.069977	 0.000000
									CHANNELS 3 Zrotation Xrotation Yrotation
									JOINT RightHandIndex2
									{
										OFFSET	 0.000000	 0.052305	 0.000000
										CHANNELS 3 Zrotation Xrotation Yrotation
										JOINT RightHandIndex3
										{
											OFFSET	 0.009002	 0.042196	 0.000782
											CHANNELS 3 Zrotation Xrotation Yrotation
											End Site
											{
												OFFSET	 0.009002	 0.042196	 0.000782
											}
										}
									}
								}
							}
						}
					}
				}
			}
		}
	}
}
MOTION
Frames:    12
Frame Time: 0.03333334
 0.001695	 1.271210	 0.063468	-0.091322	-0.044813	-179.994000	-177.071100	 1.230539	-10.273360	 2.246669	-10.483730	-0.051305	-5.313308	 70.056110	 4.705354	 1.292262	 28.425850	-2.713146	 176.883900	 1.928042	 10.303950	-2.384047	-11.438240	 0.027448	 5.471894	 70.416720	-4.861172	-1.288183	 28.361890	 2.710176	-0.087216	 2.683628	 2.206045	-0.542490	 3.655103	 1.167305	 0.483094	-4.663800	-3.362849	-101.478000	 1.740674	 90.353380	 3.264053	 65.482220	-0.011721	 2.200011	 4.592561	 1.366805	 11.862010	 7.710511	 6.733827	-6.580301	 5.266122	 0.000000	 0.000000	 0.000000	 0.000000	 0.000000	 0.000000	 0.000000	 0.089846	-3.783161	 0.005928	 0.008905	 1.237040	-0.824883	 101.796200	-0.213315	-89.955440	-8.118595	 65.864030	-0.871868	-2.799684	 4.285534	 1.385967	-15.893280	 2.827285	 10.423570	 15.208500	 5.323790	 0.000000	 0.000000	 0.000000	 0.000000	 0.000000	 0.000000	 0.000000
 0.001733	 1.271308	 0.063819	-0.033036	-0.244888	 179.998000	-177.009100	 1.518492	-10.283910	 2.272998	-10.603770	-0.046487	-5.317462	 70.088650	 4.694530	 1.292262	 28.425850	-2.713146	 176.937200	 2.157460	 10.288170	-2.383523	-11.435800	 0.027554	 5.417713	 70.385710	-4.800961	-1.288183	 28.361890	 2.710176	-0.029242	 2.483544	 2.209294	-0.537457	 3.626898	 1.172804	 0.480854	-4.650682	-3.362761	-101.478000	 1.740676	 90.353380	 3.067557	 65.706610	 0.169227	 2.159776	 4.508911	 1.370073	 11.958090	 7.565843	 6.778924	-6.580301	 5.266122	 0.000000	 0.000000	 0.000000	 0.000000	 0.000000	 0.000000	 0.000000	 0.089846	-3.783161	 0.005928	 0.008905	 1.237040	-0.824883	 101.796200	-0.213298	-89.955470	-7.746466	 66.047380	-1.221526	-2.744991	 4.202214	 1.363790	-16.237520	 2.709043	 10.215290	 15.208500	 5.323790	 0.000000	 0.000000	 0.000000	 0.000000	 0.000000	 0.000000	 0.000000
 0.001783	 1.271412	 0.064137	 0.007160	-0.427388	 179.991700	-176.965700	 1.757360	-10.283470	 2.286494	-10.665250	-0.043998	-5.284366	 70.094390	 4.650255	 1.292262	 28.425850	-2.713146	 176.971900	 2.370218	 10.287890	-2.384610	-11.440870	 0.027333	 5.405785	 70.360340	-4.786793	-1.288183	 28.361890	 2.710176	 0.010685	 2.300845	 2.212545	-0.556058	 3.602459	 1.178056	 0.489616	-4.639523	-3.362676	-101.478000	 1.740676	 90.353390	 2.880473	 65.916080	 0.338726	 2.122604	 4.431681	 1.372976	 12.044580	 7.400315	 6.828637	-6.580301	 5.266122	 0.000000	 0.000000	 0.000000	 0.000000	 0.000000	 0.000000	 0.000000	 0.089846	-3.783161	 0.005928	 0.008905	 1.237040	-0.824883	 101.796200	-0.213311	-89.955450	-7.236685	 66.214490	-1.698399	-2.692194	 4.121686	 1.317428	-16.851580	 2.579136	 9.777068	 15.208500	 5.323790	 0.000000	 0.000000	 0.000000	 0.000000	 0.000000	 0.000000	 0.000000
 0.001844	 1.271535	 0.064438	 0.034357	-0.600609	 179.984500	-176.934800	 1.958176	-10.283860	 2.287956	-10.671900	-0.043726	-5.238996	 70.073570	 4.599472	 1.292262	 28.425850	-2.713146	 176.993900	 2.572591	 10.286970	-2.385740	-11.446150	 0.027112	 5.396303	 70.336330	-4.775309	-1.288183	 28.361890	 2.710176	 0.037563	 2.127632	 2.216711	-0.596375	 3.579512	 1.184178	 0.508471	-4.629212	-3.362571	-101.478000	 1.740661	 90.353380	 2.693874	 66.121110	 0.507151	 2.087607	 4.358897	 1.375613	 12.125470	 7.204906	 6.882884	-6.580301	 5.266122	 0.000000	 0.000000	 0.000000	 0.000000	 0.000000	 0.000000	 0.000000	 0.089846	-3.783161	 0.005928	 0.008905	 1.237040	-0.824883	 101.796200	-0.213306	-89.955460	-6.548274	 66.367380	-2.340525	-2.638601	 4.039905	 1.244640	-17.768340	 2.432871	 9.088142	 15.208500	 5.323790	 0.000000	 0.000000	 0.000000	 0.000000	 0.000000	 0.000000	 0.000000
 0.001910	 1.271653	 0.064687	 0.045854	-0.743967	 179.979000	-176.919400	 2.102742	-10.284860	 2.279569	-10.633700	-0.045277	-5.193823	 70.033790	 4.554611	 1.292262	 28.425850	-2.713146	 177.001400	 2.742130	 10.285570	-2.387616	-11.454910	 0.026739	 5.386369	 70.318890	-4.763196	-1.288183	 28.361890	 2.710176	 0.048773	 1.984281	 2.220367	-0.650264	 3.561631	 1.189532	 0.533642	-4.621466	-3.362492	-101.478000	 1.740659	 90.353380	 2.533916	 66.295630	 0.648615	 2.058492	 4.298485	 1.377820	 12.190710	 7.010891	 6.936028	-6.580301	 5.266122	 0.000000	 0.000000	 0.000000	 0.000000	 0.000000	 0.000000	 0.000000	 0.089846	-3.783161	 0.005928	 0.008905	 1.237040	-0.824883	 101.796200	-0.213319	-89.955440	-5.776176	 66.483600	-3.057306	-2.591016	 3.967387	 1.158747	-18.828360	 2.293552	 8.275194	 15.208500	 5.323790	 0.000000	 0.000000	 0.000000	 0.000000	 0.000000	 0.000000	 0.000000
 0.001923	 1.271676	 0.064731	 0.046667	-0.769777	 179.977700	-176.917800	 2.126241	-10.285080	 2.276980	-10.621900	-0.045755	-5.184135	 70.024190	 4.545425	 1.292262	 28.425850	-2.713146	 177.001600	 2.773014	 10.285280	-2.388088	-11.457110	 0.026645	 5.385102	 70.316060	-4.761561	-1.288183	 28.361890	 2.710176	 0.049515	 1.958274	 2.221176	-0.662235	 3.558627	 1.190658	 0.539248	-4.620031	-3.362467	-101.478000	 1.740661	 90.353390	 2.508524	 66.347590	 0.663739	 2.053123	 4.287277	 1.378270	 12.195940	 6.912861	 6.959145	-6.580301	 5.266122	 0.000000	 0.000000	 0.000000	 0.000000	 0.000000	 0.000000	 0.000000	 0.089846	-3.783161	 0.005928	 0.008905	 1.237041	-0.824883	 101.796200	-0.213306	-89.955440	-5.169208	 66.453790	-3.613883	-2.574390	 3.942150	 1.080574	-19.757090	 2.229436	 7.532237	 15.208500	 5.323790	 0.000000	 0.000000	 0.000000	 0.000000	 0.000000	 0.000000	 0.000000
 0.001923	 1.271676	 0.064731	 0.046658	-0.769777	 179.977700	-176.917800	 2.126245	-10.285080	 2.276971	-10.621860	-0.045758	-5.184095	 70.024150	 4.545392	 1.292262	 28.425850	-2.713146	 177.001600	 2.773014	 10.285280	-2.388087	-11.457100	 0.026648	 5.385110	 70.316050	-4.761572	-1.288183	 28.361890	 2.710176	 0.049506	 1.958274	 2.221179	-0.662214	 3.558626	 1.190657	 0.539238	-4.620024	-3.362471	-101.478000	 1.740658	 90.353370	 2.261556	 65.332850	 0.738652	 2.053967	 4.289042	 1.378214	 12.278910	 6.860380	 6.893710	-6.580301	 5.266122	 0.000000	 0.000000	 0.000000	 0.000000	 0.000000	 0.000000	 0.000000	 0.089846	-3.783161	 0.005928	 0.008905	 1.237040	-0.824883	 101.796200	-0.213309	-89.955450	-5.605659	 50.932000	-1.942704	-31.445850	 38.673420	 10.809660	-10.140320	-20.741080	-12.924110	 15.208500	 5.323790	 0.000000	 0.000000	 0.000000	 0.000000	 0.000000	 0.000000	 0.000000
 0.001923	 1.271676	 0.064731	 0.046650	-0.769777	 179.977700	-176.917800	 2.126245	-10.285110	 2.276970	-10.621860	-0.045757	-5.184174	 70.024150	 4.545483	 1.292262	 28.425850	-2.713146	 177.001600	 2.773062	 10.285270	-2.388108	-11.457200	 0.026644	 5.385108	 70.316100	-4.761558	-1.288183	 28.361890	 2.710176	 0.049511	 1.958274	 2.221177	-0.662248	 3.558626	 1.190654	 0.539247	-4.620028	-3.362464	-101.478000	 1.740663	 90.353380	 2.175534	 64.956950	 0.769586	 2.054196	 4.289418	 1.378137	 12.313440	 6.900127	 6.858887	-6.580301	 5.266122	 0.000000	 0.000000	 0.000000	 0.000000	 0.000000	 0.000000	 0.000000	 0.089846	-3.783161	 0.005928	 0.008905	 1.237040	-0.824883	 101.796200	-0.213307	-89.955450	-7.754919	 46.371220	 0.977350	-45.800610	 47.723980	 20.249130	-5.184852	-28.612180	-18.126840	 15.208500	 5.323790	 0.000000	 0.000000	 0.000000	 0.000000	 0.000000	 0.000000	 0.000000
 0.001923	 1.271676	 0.064731	 0.046650	-0.769777	 179.977700	-176.917800	 2.126245	-10.285110	 2.276970	-10.621860	-0.045757	-5.184174	 70.024150	 4.545483	 1.292262	 28.425850	-2.713146	 177.001600	 2.773062	 10.285280	-2.388108	-11.457200	 0.026642	 5.385118	 70.316070	-4.761568	-1.288183	 28.361890	 2.710176	 0.049511	 1.958275	 2.221205	-0.662250	 3.558799	 1.190686	 0.539241	-4.620160	-3.362471	-101.478000	 1.740666	 90.353380	 2.058855	 64.426110	 0.815279	 2.054216	 4.289624	 1.378200	 12.365230	 6.999347	 6.801347	-6.580301	 5.266122	 0.000000	 0.000000	 0.000000	 0.000000	 0.000000	 0.000000	 0.000000	 0.089846	-3.783161	 0.005928	 0.008905	 1.237040	-0.824883	 101.796200	-0.213312	-89.955450	-13.871440	 42.531870	 7.999997	-63.866080	 54.019370	 33.770880	 2.767130	-37.187540	-22.460300	 15.208500	 5.323790	 0.000000	 0.000000	 0.000000	 0.000000	 0.000000	 0.000000	 0.000000
 0.001923	 1.271676	 0.064730	 0.046650	-0.769777	 179.977700	-176.917800	 2.126245	-10.285120	 2.276981	-10.621910	-0.045756	-5.184219	 70.024200	 4.545521	 1.292262	 28.425850	-2.713146	 177.001600	 2.772965	 10.285270	-2.388077	-11.457060	 0.026650	 5.385083	 70.316020	-4.761541	-1.288183	 28.361890	 2.710176	 0.049511	 1.958274	 2.221176	-0.662236	 3.558622	 1.190658	 0.539237	-4.620086	-3.362475	-101.478000	 1.740666	 90.353380	 1.310223	 60.522670	 0.975320	 2.050113	 4.280955	 1.378386	 12.685340	 7.232523	 6.442252	-6.580301	 5.266122	 0.000000	 0.000000	 0.000000	 0.000000	 0.000000	 0.000000	 0.000000	 0.089846	-3.783161	 0.005928	 0.008905	 1.237041	-0.824883	 101.796200	-0.213316	-89.955440	-108.915100	 1.964565	 63.138940	-2.684685	 4.110333	-5.832245	 10.697800	-24.302590	-67.007650	 15.208500	 5.323790	 0.000000	 0.000000	 0.000000	 0.000000	 0.000000	 0.000000	 0.000000
 0.001923	 1.271676	 0.064731	 0.046658	-0.769777	 179.977700	-176.917800	 2.126187	-10.285080	 2.276935	-10.621700	-0.045761	-5.184039	 70.024030	 4.545352	 1.292262	 28.425850	-2.713146	 177.001600	 2.773101	 10.285260	-2.388117	-11.457240	 0.026639	 5.385080	 70.316100	-4.761527	-1.288183	 28.361890	 2.710176	 0.049506	 1.958274	 2.221178	-0.662218	 3.558800	 1.190662	 0.539232	-4.620134	-3.362472	-101.478000	 1.740672	 90.353390	 1.348765	 60.720310	 1.021014	 2.050559	 4.281899	 1.378441	 12.701190	 7.572354	 6.397413	-6.580301	 5.266122	 0.000000	 0.000000	 0.000000	 0.000000	 0.000000	 0.000000	 0.000000	 0.089846	-3.783161	 0.005928	 0.008905	 1.237041	-0.824883	 101.796200	-0.213310	-89.955440	-108.185700	 4.044427	 65.229800	-2.773496	 4.245665	-5.279739	 15.007410	-22.389080	-59.660700	 15.208500	 5.323790	 0.000000	 0.000000	 0.000000	 0.000000	 0.000000	 0.000000	 0.000000
 0.001923	 1.271676	 0.064731	 0.046658	-0.769777	 179.977700	-176.917800	 2.126244	-10.285110	 2.276970	-10.621860	-0.045757	-5.184177	 70.024150	 4.545485	 1.292262	 28.425850	-2.713146	 177.001600	 2.773058	 10.285260	-2.388108	-11.457200	 0.026643	 5.385091	 70.316100	-4.761536	-1.288183	 28.361890	 2.710176	 0.049506	 1.958274	 2.221150	-0.662215	 3.558626	 1.190628	 0.539236	-4.620054	-3.362466	-101.478000	 1.740663	 90.353380	 1.418640	 61.112630	 1.035665	 2.051448	 4.283788	 1.378381	 12.684700	 7.708804	 6.405027	-6.580301	 5.266122	 0.000000	 0.000000	 0.000000	 0.000000	 0.000000	 0.000000	 0.000000	 0.089846	-3.783161	 0.005928	 0.008905	 1.237040	-0.824883	 101.796200	-0.213311	-89.955450	-89.945770	 11.065840	 64.403020	-23.450450	 31.406110	 1.838249	 29.351950	-33.215290	-47.091340	 15.208500	 5.323790	 0.000000	 0.000000	 0.000000	 0.000000	 0.000000	 0.000000	 0.000000
